<svg width="118" height="120" viewBox="0 0 118 120" fill="none" xmlns="http://www.w3.org/2000/svg">
<path fill-rule="evenodd" clip-rule="evenodd" d="M71.1644 39.1222L71.1637 39.1227C62.7007 41.9814 53.1707 36.4812 49.92 26.8619C48.3784 22.3023 48.4538 17.4726 50.133 13.263C51.8908 8.85641 55.1725 5.647 59.3757 4.22646C63.5781 2.80648 68.1334 3.36689 72.2038 5.80451C76.0925 8.1324 79.0826 11.9265 80.6226 16.4871C83.299 24.4092 80.8933 32.6956 75.2321 36.9704C74.019 37.8864 72.6577 38.6169 71.1644 39.1222ZM43.8772 53.5396C51.6399 47.678 52.5224 35.7139 45.8441 26.8697C39.1643 18.0233 27.4145 15.5955 19.6518 21.457C11.8898 27.3181 11.0091 39.2831 17.689 48.1295C24.3672 56.9737 36.1152 59.4006 43.8772 53.5396ZM52.4471 50.1729C60.4379 44.139 70.8166 42.6101 80.2097 46.0815L102.843 54.4457C106.599 55.8347 109.741 58.3409 111.929 61.6954C114.118 65.05 115.146 68.936 114.903 72.9325C114.659 76.9309 113.168 80.6635 110.589 83.7277C109.68 84.8065 108.667 85.7681 107.566 86.5996C105.54 88.1291 103.215 89.2235 100.692 89.8213C90.9082 92.1372 82.4719 98.4615 77.5037 107.194L77.3734 107.429C75.4183 110.925 72.454 113.641 68.8004 115.281C65.1469 116.922 61.1485 117.334 57.2374 116.475C53.3261 115.612 49.8713 113.559 47.2453 110.536C44.6198 107.513 43.0688 103.805 42.7622 99.8136L40.9128 75.7544C40.1445 65.7704 44.4562 56.2067 52.4471 50.1729ZM34.6163 69.4596C35.9629 73.6819 35.4953 77.9466 33.3004 81.4686C32.4054 82.9079 31.274 84.1251 29.9716 85.1085C24.8713 88.9597 17.1526 89.2276 10.7535 85.2509C2.72365 80.2472 -0.220978 70.422 4.18584 63.3457C6.37401 59.8254 9.99425 57.5235 14.3754 56.8664C18.5467 56.2415 22.9362 57.1981 26.7363 59.5607C30.5374 61.9261 33.3355 65.4415 34.6163 69.4596ZM99.399 14.8641L99.3952 14.8636C91.0558 14.9513 84.3439 22.7108 84.4333 32.1637C84.5293 41.6163 91.3886 49.2422 99.7221 49.1634C102.762 49.1355 105.587 48.0865 107.944 46.3064C112.053 43.2039 114.744 37.8789 114.69 31.8646C114.593 22.4126 107.734 14.7862 99.399 14.8641ZM68.9216 55.1407C71.3779 52.8902 74.5382 51.8038 77.8209 52.0811C81.065 52.3552 84.1703 53.9453 86.5646 56.5585C89.0294 59.2487 90.2833 62.6293 90.5103 67.198C90.7136 71.2851 90.1069 76.1782 89.4046 81.8436L89.4045 81.8443L89.3985 81.8927C89.1601 83.8169 88.8905 85.9941 88.6366 88.2811C88.5695 88.8898 88.283 89.4541 87.8304 89.8687C87.3776 90.2836 86.7907 90.5196 86.1775 90.5333C83.8598 90.5872 81.6526 90.6664 79.705 90.7363L79.7006 90.7365C73.9943 90.9417 69.0665 91.1187 65.0128 90.5597C60.4811 89.9346 57.2226 88.3907 54.758 85.7007C52.3635 83.0872 51.0505 79.855 51.0603 76.5995C51.0706 73.3052 52.429 70.2515 54.8853 68.001C56.7213 66.3188 58.9345 65.3587 61.4633 65.1474C62.7399 65.0406 64.0648 65.1274 65.417 65.4057C65.2578 64.0339 65.2869 62.707 65.5044 61.4448C65.936 58.9439 67.0856 56.8229 68.9216 55.1407Z" fill="#EBF5FD"/>
</svg>
