<svg width="194" height="198" viewBox="0 0 194 198" fill="none" xmlns="http://www.w3.org/2000/svg">
<path d="M36.526 98.9743V74.1216C36.526 64.0714 44.5378 55.8929 54.3849 55.8929H85.2287V24.4146C85.2287 14.3645 93.2405 6.1875 103.088 6.1875H127.438C137.285 6.1875 145.299 14.3645 145.299 24.4146V55.8945H176.141C185.988 55.8945 194 64.0714 194 74.1216V98.9743C194 109.024 185.988 117.201 176.141 117.201H145.299V148.681C145.299 158.731 137.285 166.908 127.438 166.908H103.088C93.2405 166.908 85.2287 158.731 85.2287 148.681V117.201H54.3849C44.5378 117.201 36.526 109.024 36.526 98.9743Z" fill="#FFE8D4"/>
<path d="M54.3344 137.243C54.3344 140.442 51.7871 143.043 48.6508 143.043C45.5129 143.043 42.9672 140.442 42.9672 137.243C42.9672 134.042 45.5129 131.442 48.6508 131.442C51.7871 131.442 54.3344 134.042 54.3344 137.243Z" fill="#FFE8D4"/>
<path d="M67.2664 144.817C70.4042 144.817 72.95 147.415 72.95 150.618C72.95 153.817 70.4042 156.418 67.2664 156.418C64.1285 156.418 61.5828 153.817 61.5828 150.618C61.5828 147.415 64.1285 144.817 67.2664 144.817Z" fill="#FFE8D4"/>
<path d="M18.616 137.243C18.616 140.447 21.1617 143.043 24.2996 143.043C27.4389 143.043 29.9832 140.447 29.9832 137.243C29.9832 134.04 27.4389 131.442 24.2996 131.442C21.1617 131.442 18.616 134.04 18.616 137.243Z" fill="#FFE8D4"/>
<path d="M36.4765 152.702C48.5631 152.702 58.3969 162.739 58.3969 175.076C58.3969 184.131 51.2228 191.761 42.0491 191.761H30.9025C21.7332 191.761 14.5547 184.137 14.5547 175.076C14.5547 162.739 24.3885 152.702 36.4765 152.702Z" fill="#FFE8D4"/>
<path d="M5.68359 144.817C8.82141 144.817 11.3672 147.415 11.3672 150.618C11.3672 153.817 8.82141 156.418 5.68359 156.418C2.54578 156.418 0 153.817 0 150.618C0 147.415 2.54578 144.817 5.68359 144.817Z" fill="#FFE8D4"/>
</svg>
